<svg xmlns="http://www.w3.org/2000/svg" xmlns:xlink="http://www.w3.org/1999/xlink" width="500" zoomAndPan="magnify" viewBox="0 0 375 374.999991" height="500" preserveAspectRatio="xMidYMid meet" version="1.0"><defs><clipPath id="9da5946b6a"><path d="M 124 95 L 351.679688 95 L 351.679688 302 L 124 302 Z M 124 95 " clip-rule="nonzero"/></clipPath><clipPath id="1d193509c9"><path d="M 23.179688 165 L 136 165 L 136 333 L 23.179688 333 Z M 23.179688 165 " clip-rule="nonzero"/></clipPath></defs><g clip-path="url(#9da5946b6a)"><path fill="#7828c8" d="M 345.382812 95.140625 L 171.664062 95.140625 C 165.238281 95.140625 159.078125 100.308594 157.949219 106.601562 L 124.757812 290.195312 C 123.628906 296.554688 127.9375 301.65625 134.363281 301.65625 L 140.195312 301.65625 C 144.964844 295.097656 151.257812 290.394531 158.082031 288.207031 C 166.230469 285.621094 174.183594 286.949219 180.542969 291.917969 C 183.789062 294.433594 186.441406 297.746094 188.296875 301.65625 L 242.890625 301.65625 C 247.660156 295.097656 253.953125 290.394531 260.84375 288.207031 C 268.992188 285.621094 276.945312 286.949219 283.304688 291.917969 C 286.550781 294.433594 289.199219 297.746094 291.054688 301.65625 L 308.082031 301.65625 C 311.925781 301.65625 315.636719 298.542969 316.296875 294.765625 L 323.519531 254.417969 C 324.183594 250.640625 321.597656 247.527344 317.757812 247.527344 L 197.105469 247.527344 C 195.78125 247.527344 194.988281 246.464844 195.183594 245.207031 L 198.761719 225.332031 C 198.960938 224.074219 200.222656 223.011719 201.480469 223.011719 L 298.542969 223.011719 C 302.386719 223.011719 306.09375 219.898438 306.757812 216.121094 L 313.183594 180.410156 C 313.847656 176.632812 311.328125 173.519531 307.421875 173.519531 L 210.492188 173.519531 C 209.230469 173.519531 208.371094 172.460938 208.570312 171.203125 L 212.410156 149.933594 C 212.609375 148.675781 213.871094 147.613281 215.128906 147.613281 L 335.84375 147.613281 C 339.6875 147.613281 343.398438 144.5 344.058594 140.722656 L 351.082031 101.832031 C 351.8125 98.1875 349.226562 95.140625 345.382812 95.140625 Z M 219.832031 120.25 C 217.117188 126.347656 210.621094 129.460938 205.390625 127.140625 C 200.089844 124.824219 198.035156 117.933594 200.683594 111.835938 C 203.402344 105.742188 209.894531 102.628906 215.128906 104.945312 C 220.429688 107.265625 222.480469 114.15625 219.832031 120.25 Z M 299.136719 120.25 C 296.421875 126.347656 289.929688 129.460938 284.695312 127.140625 C 279.394531 124.824219 277.339844 117.933594 279.992188 111.835938 C 282.707031 105.742188 289.199219 102.628906 294.433594 104.945312 C 299.800781 107.265625 301.855469 114.15625 299.136719 120.25 Z M 299.136719 120.25 " fill-opacity="1" fill-rule="nonzero"/></g><g clip-path="url(#1d193509c9)"><path fill="#666666" d="M 135.425781 310.003906 C 132.441406 316.695312 131.117188 324.050781 131.714844 331.140625 C 131.714844 331.535156 131.78125 331.933594 131.847656 332.332031 L 127.871094 332.332031 C 117.535156 332.332031 107.796875 327.761719 101.171875 319.875 C 94.546875 311.925781 91.828125 301.589844 93.617188 291.386719 L 112.300781 188.097656 L 34.320312 188.097656 C 28.15625 188.097656 23.1875 183.0625 23.1875 176.964844 C 23.1875 170.804688 28.15625 165.835938 34.320312 165.835938 L 113.230469 165.835938 C 119.589844 165.835938 125.617188 168.617188 129.726562 173.519531 C 133.832031 178.421875 135.492188 184.851562 134.363281 191.078125 L 115.546875 295.363281 C 114.886719 299.007812 115.878906 302.714844 118.265625 305.566406 C 120.648438 308.414062 124.09375 310.003906 127.804688 310.003906 Z M 135.425781 310.003906 " fill-opacity="1" fill-rule="nonzero"/></g><path fill="#666666" d="M 238.117188 310.003906 C 235.136719 316.695312 233.8125 324.050781 234.40625 331.140625 C 234.40625 331.535156 234.472656 331.933594 234.539062 332.332031 L 189.15625 332.332031 C 191.277344 326.5 192.136719 320.273438 191.675781 314.179688 C 191.542969 312.722656 191.410156 311.328125 191.144531 310.003906 Z M 238.117188 310.003906 " fill-opacity="1" fill-rule="nonzero"/><path fill="#666666" d="M 325.640625 321.203125 C 325.640625 327.363281 320.671875 332.332031 314.507812 332.332031 L 291.917969 332.332031 C 294.035156 326.5 294.898438 320.273438 294.433594 314.179688 C 294.300781 312.722656 294.167969 311.328125 293.90625 310.003906 L 314.507812 310.003906 C 320.605469 310.003906 325.640625 315.039062 325.640625 321.203125 Z M 325.640625 321.203125 " fill-opacity="1" fill-rule="nonzero"/><path fill="#000000" d="M 177.363281 297.21875 C 166.960938 289.132812 151.523438 293.972656 142.84375 308.082031 C 134.164062 322.128906 135.554688 340.148438 145.957031 348.167969 C 156.359375 356.25 171.796875 351.414062 180.476562 337.300781 C 189.15625 323.253906 187.765625 305.300781 177.363281 297.21875 Z M 177.363281 297.21875 " fill-opacity="1" fill-rule="nonzero"/><path fill="#000000" d="M 280.125 297.21875 C 269.722656 289.132812 254.285156 293.972656 245.605469 308.082031 C 236.925781 322.128906 238.316406 340.148438 248.71875 348.167969 C 259.121094 356.25 274.558594 351.414062 283.238281 337.300781 C 291.917969 323.1875 290.527344 305.300781 280.125 297.21875 Z M 280.125 297.21875 " fill-opacity="1" fill-rule="nonzero"/><path fill="#000000" d="M 290.261719 118.792969 C 288.140625 118.792969 285.886719 117.601562 284.230469 114.886719 L 292.84375 72.085938 C 295.429688 59.363281 290.527344 46.246094 279.195312 37.832031 C 278.929688 37.632812 278.601562 37.433594 278.269531 37.234375 C 266.277344 29.945312 252.296875 30.410156 241.496094 37.566406 C 234.078125 42.535156 228.976562 50.089844 227.1875 58.832031 L 215.988281 114.355469 C 214.996094 119.125 208.171875 121.246094 204.527344 114.753906 L 216.253906 56.648438 C 219.632812 39.753906 232.289062 26.304688 250.308594 21.730469 C 251.039062 21.53125 251.765625 21.398438 252.496094 21.332031 C 270.914062 18.75 287.675781 26.433594 297.21875 40.8125 C 303.777344 50.75 306.160156 62.675781 303.777344 74.335938 L 295.695312 114.355469 C 295.164062 117.003906 292.84375 118.792969 290.261719 118.792969 Z M 290.261719 118.792969 " fill-opacity="1" fill-rule="nonzero"/></svg>